<?xml version="1.0" encoding="UTF-8" standalone="no"?>
<!-- Created with Inkscape (http://www.inkscape.org/) -->

<svg
   width="184.16811mm"
   height="155.13048mm"
   viewBox="0 0 184.16811 155.13048"
   version="1.1"
   id="svg1"
   xml:space="preserve"
   xmlns="http://www.w3.org/2000/svg"
   xmlns:svg="http://www.w3.org/2000/svg"><defs
     id="defs1" /><rect
     style="display:none;fill:#cccccc;fill-opacity:1;stroke:#0e425c;stroke-width:0.246891;stroke-linecap:round;stroke-dasharray:none;stroke-opacity:1"
     id="rect58"
     width="199.44688"
     height="235.26294"
     x="-9.5701447"
     y="-52.688686" /><g
     id="g58"
     transform="translate(387.29903,-88.630136)"><g
       id="g59"
       transform="translate(-1.2708333e-5)"
       style="display:inline"><path
         id="path59"
         style="clip-rule:evenodd;display:inline;fill:#ffffff;fill-opacity:1;fill-rule:evenodd;stroke-width:0.264583;image-rendering:optimizeQuality;shape-rendering:geometricPrecision;text-rendering:geometricPrecision"
         d="m -290.44924,88.63287 c -7.48599,0.08661 -15.15685,2.199542 -21.00802,7.015593 -1.91775,1.549936 -3.62143,3.359721 -5.09168,5.337657 -1.27214,-0.0858 -2.56992,-0.55046 -3.83801,-0.25735 -0.98293,0.35749 -1.19328,1.58285 -0.85679,2.46859 0.8426,4.31299 1.51748,8.66119 2.22932,12.993 0.38834,1.19575 1.64432,1.79488 2.836,1.8495 0.002,0.56446 0.02,1.1336 -0.0129,1.68827 -0.0465,3.45946 -0.16286,6.95062 -0.28887,10.39833 -0.81021,-0.45554 -1.64122,-0.86872 -2.49287,-1.2392 -0.15439,-1.71845 -0.53845,-3.41139 -1.43816,-4.90926 -0.85071,-1.46619 -2.01911,-2.7927 -3.43855,-3.71605 -1.43455,-0.44784 -2.92027,-0.73304 -4.41988,-0.83251 -0.49644,-0.5139 -0.0936,-1.34342 -0.69505,-1.78284 -1.26879,-1.51555 -3.3519,-2.17268 -5.27565,-1.80505 -0.82801,0.0555 -1.65476,0.1775 -2.45308,0.40824 -1.18564,-0.9382 -2.57116,-1.59119 -4.11706,-1.47433 -1.10668,0.0326 -2.204,0.34385 -3.16414,0.89452 -2.04775,-1.11269 -4.70581,-1.21926 -6.66523,0.14831 -0.38276,0.24125 -0.72265,0.52517 -1.04386,0.82682 -0.14177,-0.0738 -0.29096,-0.13611 -0.45476,-0.17053 -1.96836,-0.65089 -3.95775,-1.237 -5.96914,-1.73994 l -0.0956,0.0284 -0.0429,0.0124 c -2.18683,0.54703 -4.06754,1.92202 -5.49578,3.63595 -3.35456,3.45098 -5.38615,8.09545 -5.74332,12.88707 -0.31448,2.64739 -0.31272,5.3265 -0.0853,7.98091 0.59653,0.49929 0.51716,1.42331 1.2423,1.81849 0.50571,0.30991 1.06378,0.45925 1.55288,0.80822 0.88124,0.22705 1.46465,0.97488 2.32027,1.27951 0.6341,0.2566 1.30159,0.36053 1.84847,0.7953 1.62464,0.82471 3.44037,1.17523 5.13405,1.834 1.34334,0.44517 2.67385,0.94113 4.00131,1.45159 -0.10225,0.22904 -0.17912,0.47065 -0.19792,0.72399 -0.52727,1.83807 -0.98543,3.70222 -1.42162,5.5547 -1.21626,4.0012 -2.22889,8.09737 -3.05563,12.17341 -0.59243,0.99849 -0.41123,2.24134 -0.65784,3.34605 -0.24976,1.37589 -0.78605,2.70065 -0.93328,4.1057 -0.28776,2.55118 -0.75854,5.08418 -0.91932,7.64966 -3.53404,1.18259 -6.99519,2.57081 -10.33115,4.254 -5.35897,2.74173 -10.48572,6.46124 -13.60021,11.72125 -2.12396,3.62577 -3.00234,7.91499 -2.62619,12.09022 0.3523,6.42105 2.93137,12.75715 7.46466,17.36225 5.29528,5.48925 12.39492,8.81125 19.57658,11.08149 10.35343,3.26739 21.19127,4.61573 31.97893,5.46323 14.6409,1.09986 29.34177,1.08887 44.01385,0.80926 15.09227,-0.37543 30.25055,-1.23843 45.0727,-4.25969 8.30187,-1.75358 16.62825,-4.21958 23.82852,-8.83512 5.00368,-3.23909 9.32251,-7.93081 11.04894,-13.73508 1.49542,-4.89031 1.5464,-10.33146 -0.35089,-15.12053 -2.26004,-5.64838 -6.82459,-10.02174 -11.82563,-13.30978 -6.40223,-4.22508 -13.61272,-7.00023 -20.93826,-9.1891 -1.02233,-1.16512 -2.15317,-2.23514 -3.38532,-3.17603 -4.17569,-7.18857 -10.3516,-13.25446 -17.8046,-16.98915 -2.31934,-1.15314 -4.71291,-2.22135 -7.21971,-2.88871 -1.44032,-0.2723 -2.85656,-0.66732 -4.27261,-1.03766 1.04775,-4.02942 2.02793,-8.07615 2.88458,-12.15068 3.83125,2.22526 8.51785,2.87716 12.81007,1.7694 0.86584,-0.26452 1.87419,-0.32682 2.45928,-1.10743 2.16865,-2.03667 3.44328,-5.04323 3.10369,-8.03 -0.11,-1.46198 -0.47026,-2.93059 -1.37201,-4.11603 -0.65885,-0.97929 -1.3437,-2.01108 -2.4753,-2.48047 -2.76529,-1.64026 -5.56529,-3.25448 -8.2548,-5.00176 -2.13665,-2.61203 -4.16412,-5.3344 -5.86527,-8.25066 -0.30131,-0.69531 -0.60239,-1.39069 -0.90331,-2.08617 0.2645,-0.0884 0.53127,-0.16996 0.79479,-0.26149 1.19466,-0.54131 1.92526,-1.9077 1.65416,-3.1998 -0.0474,-4.14974 0.0544,-8.28553 0.40514,-12.403895 0.26357,-1.161494 -0.96467,-2.24769 -2.09289,-1.865003 -0.82484,0.19906 -1.62471,0.489081 -2.43913,0.726571 -3.30148,-3.134246 -7.27497,-5.626234 -11.69748,-6.807336 -3.06112,-0.865824 -6.25758,-1.200001 -9.43353,-1.163237 z m 5.79448,61.39935 c 0.0411,-0.0126 0.0662,0.003 0.063,0.0672 0.0778,1.42299 -0.20343,2.83218 -0.60358,4.18941 -0.12787,-0.20019 -0.66704,0.24194 -0.91157,0.7705 -0.36148,0.5433 -0.88378,1.06954 -1.58078,1.07952 -0.26041,-2.21025 0.73557,-4.4819 2.55902,-5.76296 0.0827,-0.0123 0.3505,-0.30594 0.47387,-0.34365 z m -29.38942,2.84376 c 0.0987,0.79187 0.19771,1.58371 0.29662,2.37556 -4.53276,1.14964 -8.83572,3.20665 -12.53567,6.06888 0.23942,-1.31846 0.63997,-2.59787 1.01234,-3.88193 0.36152,-0.26187 0.79601,-0.46764 1.10691,-0.7922 0.93975,-0.74228 1.62135,-1.70447 2.18695,-2.73937 1.0948,-0.052 2.18111,-0.18224 3.24218,-0.51159 1.54563,-0.32326 3.11525,-0.46733 4.69067,-0.51935 z m 29.33929,2.0283 c 0.4959,0.0627 0.99276,0.14453 1.48983,0.22944 0.30969,0.43316 0.83865,0.72515 1.37925,0.76843 0.54051,0.1232 1.02954,0.40501 1.52084,0.65009 0.28412,0.57116 0.63931,1.09791 1.15496,1.5043 0.56307,1.09871 -0.34087,2.71386 -1.58388,2.71715 -1.29923,-0.16617 -1.87239,-1.5315 -2.44946,-2.53732 -0.11258,-0.24401 -0.224,-0.57417 -0.40049,-0.8015 -0.005,-0.95212 -0.38388,-1.89217 -1.11105,-2.53059 z m 9.23303,11.2205 c 1.05557,0.0198 2.09907,0.48812 3.13883,0.67903 1.27648,0.26701 2.5432,0.83958 3.86488,0.52607 1.03135,-0.0961 1.98592,-0.55846 2.94297,-0.86817 1.78239,-0.16293 3.54887,0.4859 4.94337,1.57562 1.78553,0.36505 3.94879,0.34777 5.19916,1.88464 0.6188,1.12837 -0.24189,2.33706 -0.84181,3.27525 -0.008,0.55024 -10e-4,1.10328 0.003,1.65571 -8.06277,-1.32676 -16.2196,-2.11444 -24.37526,-2.51406 -3.57431,-0.16196 -7.15222,-0.20553 -10.73009,-0.18448 0.0408,-0.31256 0.0856,-0.62481 0.16743,-0.93018 0.62296,-1.70952 1.94573,-3.08419 3.6406,-3.64887 1.30979,-0.52105 2.79999,-0.23141 4.05299,-0.12247 1.31554,0.0805 2.61506,0.8214 3.92586,0.32504 1.1013,-0.30745 1.84705,-1.31544 3.0086,-1.49655 0.35496,-0.12002 0.70802,-0.16318 1.05988,-0.15658 z" /></g><g
       id="g68"
       style="display:inline"
       transform="translate(-1.2708333e-5)"><path
         style="display:none;fill:#ff0000;stroke:#ffffff;stroke-width:0;stroke-linecap:round;stroke-dasharray:none"
         d="m -386.22522,207.14503 c 0.41171,29.15997 37.16633,35.28667 84.19441,35.54875 55.38142,0.30863 98.47337,-5.34865 97.82592,-33.94506 -0.58714,-25.93229 -51.05544,-36.11514 -89.00556,-35.54875 -35.81826,0.53457 -93.41469,5.61968 -93.01477,33.94506 z"
         id="path65" /><path
         id="path68"
         style="display:inline;fill:#ff0000;stroke:#ffffff;stroke-width:0;stroke-linecap:round;stroke-dasharray:none"
         d="m -293.21031,173.1998 c -35.8182,0.53457 -93.41492,5.61988 -93.015,33.94522 0.0616,4.35752 0.95101,8.19045 2.54869,11.57655 l 0.003,-5.2e-4 c 0.3256,-5.31892 5.85753,-23.76402 20.26388,-23.58047 0.46778,0.006 0.94483,0.0317 1.43144,0.078 2.83494,2.45697 5.03465,5.6778 16.02176,8.2858 -6.54572,2.53813 -21.57545,15.65597 -14.51385,32.61817 15.02476,4.91019 35.5023,6.44334 58.43985,6.57117 23.24078,0.12952 44.29919,-0.80103 60.88724,-4.02714 2.82088,-12.435 -3.1228,-29.45232 -9.66815,-31.9903 12.31009,-1.09601 16.58845,-3.74963 17.72244,-5.82858 1.04407,-0.17541 2.03778,-0.24775 2.98328,-0.2279 14.16028,0.29732 17.52042,21.262 17.78031,26.31571 5.37362,-4.66955 8.29231,-10.61828 8.12095,-18.187 -0.58714,-25.93225 -51.05538,-36.11513 -89.00542,-35.54874 z m 80.88447,53.73574 c -6.4e-4,5.5e-4 -0.001,0.001 -0.002,0.002 l 0.003,0.002 c -4e-5,-9.1e-4 -5.1e-4,-0.002 -5.1e-4,-0.003 z m -28.81788,11.73107 c -2.6e-4,0.002 -7.8e-4,0.003 -0.001,0.005 l 0.002,-0.005 c -3.7e-4,7e-5 -6.6e-4,4.4e-4 -0.001,5.2e-4 z"
         transform="translate(-1.2708333e-5)" /><g
         id="g69"
         style="display:inline"
         transform="translate(-1.2708333e-5)"><path
           style="display:inline;fill:#ffffff;stroke:none;stroke-width:1.4;stroke-linecap:round"
           d="m -361.97872,195.21846 c -15.57126,-1.4835 -21.44005,18.27455 -21.70733,23.62023 4.54383,11.49321 18.36125,15.75631 23.22276,17.30516 -7.08302,-16.97253 7.95777,-30.10039 14.50623,-32.63958 -10.98714,-2.608 -13.18669,-5.82884 -16.02166,-8.28581 z"
           id="path66" /><path
           style="display:inline;fill:#ffffff;stroke:none;stroke-width:1.4;stroke-linecap:round"
           d="m -233.08948,200.84764 c 16.70525,-2.80648 20.49949,20.77435 20.76677,26.12003 -7.6623,7.24075 -23.67398,10.96104 -28.82418,11.71703 2.83056,-12.43658 -3.11677,-29.46904 -9.66523,-32.00823 12.31012,-1.09601 16.58865,-3.74985 17.72264,-5.82883 z"
           id="path67" /></g></g><g
       style="clip-rule:evenodd;display:inline;fill-rule:evenodd;image-rendering:optimizeQuality;shape-rendering:geometricPrecision;text-rendering:geometricPrecision"
       id="g23"
       transform="matrix(0.26458333,0,0,0.26458333,-370.92182,61.724449)"><path
         id="path9"
         style="display:inline;fill:#f8b786;fill-opacity:1"
         d="m 114.79843,204.49684 c -4.59267,-0.0438 -8.85908,1.29116 -12.79883,4.00391 -11.280178,-6.52198 -21.113517,-4.85498 -29.500001,5 -10.508178,15.01696 -18.34151,31.35104 -23.5,49 -1.720498,5.70198 -0.220492,10.202 4.5,13.5 5.339788,1.534 9.839808,0.367 13.5,-3.5 5.726288,-13.11998 11.726312,-26.12002 18,-39 2.005496,-4.013 4.505506,-7.68 7.5,-11 0.3333,0.333 0.666702,0.667 1,1 -11.147778,20.28596 -19.481212,41.61904 -25,64 -0.495,3.448 0.505004,6.281 3,8.5 8.475484,3.455 14.808908,1.28798 19,-6.5 6.716288,-16.63296 13.550021,-33.30004 20.500001,-50 1.663,-3.996 3.829,-7.663 6.5,-11 1.114,1.223 1.281,2.556 0.5,4 -9.22098,19.87096 -17.72102,39.87104 -25.500001,60 -1.572696,6.49498 0.427312,11.328 6,14.5 10.352981,1.826 17.019001,-2.34102 20.000001,-12.5 6.67098,-18.34296 14.17102,-36.34304 22.5,-54 2.351,-2.933 3.351,-2.599 3,1 -8.94798,17.22496 -16.78202,34.89104 -23.5,53 -0.165,3.35 0.002,6.683 0.5,10 8.29598,7.18998 15.96202,6.52398 23,-2 4.93198,-10.47098 9.265,-21.13802 13,-32 3.625,-7.75598 8.12502,-14.92302 13.5,-21.5 7.34498,2.178 14.67802,4.678 22,7.5 -0.309,-13.12898 -5.64202,-23.62902 -16,-31.5 -5.51298,-1.725 -11.18002,-2.725 -17,-3 -2.303,-1.885 -3.47,-4.385 -3.5,-7.5 -4.322,-5.13698 -9.82202,-7.137 -16.5,-6 -3.787,0.16 -7.454,0.826 -11,2 -2.63,-2.321 -5.63,-4.154 -9,-5.5 -1.6035,-0.32075 -3.17028,-0.48931 -4.70117,-0.50391 z m 24.61328,121.97071 c -0.46609,-0.002 -0.93649,0.009 -1.41211,0.0332 -2.69,0.003 -5.19,0.336 -7.5,1 0.7545,-0.0175 1.50834,-0.0285 2.26172,-0.0312 1.31808,-0.005 2.63458,0.0142 3.94922,0.0547 1.31528,0.0405 2.62956,0.10358 3.9414,0.18945 1.31087,0.0858 2.62031,0.19508 3.92774,0.32617 1.30871,0.13122 2.61465,0.28432 3.91992,0.46094 -2.79562,-1.33875 -5.82524,-2.01611 -9.08789,-2.0332 z m 9.08789,2.0332 c -1.30462,-0.17653 -2.61184,-0.32967 -3.91992,-0.46094 -1.30808,-0.13126 -2.61621,-0.24021 -3.92774,-0.32617 -1.31152,-0.086 -2.62643,-0.14883 -3.9414,-0.18945 -1.31497,-0.0406 -2.63082,-0.0594 -3.94922,-0.0547 -0.75338,0.003 -1.50722,0.0138 -2.26172,0.0312 -4.418,2.083 -7.418,5.41602 -9,10 -0.61,0.891 -0.943,1.891 -1,3 -0.34,3.631 0.494,6.964 2.5,10 12.99998,11.12298 27.83304,14.457 44.5,10 0,-0.667 0.333,-1 1,-1 6.38598,-3.38698 11.053,-8.38702 14,-15 h -10 c -1.717,-6.21898 -5.71702,-10.386 -12,-12.5 -3.93,-1.477 -7.93,-2.644 -12,-3.5 z" /><path
         id="path10"
         style="display:inline;fill:#f6b685;fill-opacity:1"
         d="m 383.1756,189.58999 c -59.33294,0.319 -111.34306,16.56276 -170.676,16.91076 v 1 0 c -0.617,0.111 -1.117,0.444 -1.5,1 -0.168,19.17096 -0.668,38.17104 -1.5,57 7.82798,8.66198 16.16202,16.82802 25,24.5 4.275,3.303 8.94202,5.803 14,7.5 13.07164,8.21289 27.11781,12.26843 42.13477,12.17188 -0.35281,-0.0333 -0.70253,-0.0765 -1.04883,-0.13086 0.41923,0.0658 0.85053,0.0939 1.2793,0.1289 -0.0769,7.1e-4 -0.15363,9.6e-4 -0.23047,0.002 1.55851,0.14713 3.17978,0.0914 4.86523,-0.17188 10.03498,0.289 19.03502,3.45602 27,9.5 3.989,-0.107 7.48902,1.059 10.5,3.5 4.114,8.67098 4.614,17.67102 1.5,27 -0.131,0.876 0.202,1.543 1,2 3.575,0.789 6.90802,2.123 10,4 h 31 c 4.863,-18.20096 9.19602,-36.53504 13,-55 17.45198,11.52898 36.11904,14.02898 56,7.5 11.42898,-10.08398 14.929,-22.58402 10.5,-37.5 -2.07098,-4.011 -4.571,-7.678 -7.5,-11 -11.71596,-6.80798 -23.38302,-13.80802 -35,-21 -8.45998,-10.12198 -16.126,-20.78802 -23,-32 v 0 z M 224.07187,340.39138 c -1.85391,0.004 -3.71152,0.0412 -5.57227,0.10937 0.667,5.333 1.333,10.66702 2,16 h 10 c 15.74398,-0.317 31.41104,0.016 47,1 0,0.667 0.333,1 1,1 0,-1.333 0.667,-2 2,-2 -4.52498,-6.00398 -10.52502,-9.837 -18,-11.5 -12.6411,-3.10187 -25.45044,-4.6389 -38.42773,-4.60937 z" /><path
         id="path12"
         d="m 48.499599,204.50075 c -6.817493,1.908 -12.484205,5.57401 -17.000001,11 -13.002387,13.00499 -20.335801,28.67202 -21.9999998,47 -0.08322,4.503 -0.083334,9.00391 0,13.50391 0.083334,4.49999 0.2501153,8.9991 0.5,13.49609 -0.2498847,-4.49699 -0.4166663,-8.9961 -0.5,-13.49609 -0.083334,-4.5 -0.08322,-9.00091 0,-13.50391 -1.1579588,9.49099 -1.3246292,19.15801 -0.5,29 1.0436988,1.123 1.7104008,2.456 1.9999998,4 0.815899,1.323 1.982602,1.989 3.5,2 -0.703424,-0.48475 -1.271983,-1.00567 -1.707031,-1.56055 -0.217524,-0.27743 -0.402305,-0.56245 -0.552734,-0.85742 -0.15043,-0.29497 -0.266275,-0.59961 -0.34961,-0.91211 -0.08333,-0.3125 -0.134152,-0.63286 -0.15039,-0.96289 -0.01624,-0.33003 0.0019,-0.67001 0.05273,-1.01758 0.101714,-0.69512 0.336932,-1.4242 0.707031,-2.18945 -0.370099,0.76525 -0.605317,1.49433 -0.707031,2.18945 -0.05086,0.34757 -0.06897,0.68755 -0.05273,1.01758 0.01624,0.33003 0.06706,0.65039 0.15039,0.96289 0.08333,0.3125 0.19918,0.61714 0.34961,0.91211 0.150429,0.29497 0.33521,0.57999 0.552734,0.85742 0.435048,0.55488 1.003607,1.0758 1.707031,1.56055 1.681499,1.508 3.681503,2.508 6,3 2.735298,2.701 6.068604,4.368 10,5 2.429598,1.881 5.096203,3.215 8.000001,4 14.986985,4.77 29.653614,10.10401 44,16 12.799787,4.955 25.800011,8.955 39.000001,12 1.582,-4.58399 4.582,-7.917 9,-10 2.31,-0.664 4.81,-0.997 7.5,-1 3.805,-0.196 7.305,0.47 10.5,2 4.07,0.856 8.07,2.023 12,3.5 6.28299,2.114 10.283,6.28101 12,12.5 h 10 3 c 3.86,-0.308 7.526,-0.975 11,-2 7.25499,-1.438 14.58801,-2.105 22,-2 14.88599,-0.545 29.55302,0.95501 44,4.5 7.47499,1.663 13.47501,5.49601 18,11.5 1.915,3.276 4.58201,5.609 8,7 4.202,-0.317 8.20201,0.017 12,1 2.432,1.25 4.766,2.75 7,4.5 7.17299,0.836 13.34001,-1.331 18.5,-6.5 0.295,-2.742 -0.538,-5.075 -2.5,-7 -3.09199,4.528 -7.259,6.194 -12.5,5 -2.169,-13.15799 2.33101,-23.32501 13.5,-30.5 1.941,-0.743 3.774,-0.576 5.5,0.5 0.732,6.11 0.232,12.11001 -1.5,18 2,0.333 4,0.667 6,1 3.114,-9.32899 2.614,-18.32901 -1.5,-27 -3.01099,-2.441 -6.511,-3.607 -10.5,-3.5 -7.96499,-6.04399 -16.96501,-9.211 -27,-9.5 -16.85898,1.094 -32.52601,-2.90601 -47,-12 -5.05799,-1.697 -9.725,-4.197 -14,-7.5 -8.83799,-7.67199 -17.17201,-15.83801 -25,-24.5 -5.39199,-3.571 -11.05901,-6.571 -17,-9 -7.32199,-2.822 -14.65501,-5.322 -22,-7.5 -5.37499,6.57699 -9.875,13.74401 -13.5,21.5 -3.735,10.86199 -8.06801,21.52901 -13,32 -7.03799,8.52399 -14.70401,9.18999 -23,2 -0.498,-3.317 -0.665,-6.65 -0.5,-10 -0.1095,-0.2515 -0.23306,-0.44066 -0.37109,-0.56641 -0.13804,-0.12575 -0.29041,-0.18945 -0.45704,-0.18945 -0.16662,0 -0.34768,0.0637 -0.54296,0.18945 -0.19529,0.12575 -0.40491,0.31491 -0.62891,0.56641 -2.981,10.15899 -9.64701,14.326 -20.000001,12.5 -5.572694,-3.172 -7.572698,-8.00501 -6,-14.5 0.0537,-0.41975 0.05258,-0.79794 -0.0039,-1.13281 -0.05649,-0.33488 -0.167316,-0.62695 -0.333984,-0.87695 -0.166669,-0.25 -0.389168,-0.45793 -0.666016,-0.62305 -0.276848,-0.16513 -0.609069,-0.28694 -0.996094,-0.36719 -4.191096,7.78799 -10.524508,9.955 -19,6.5 -2.494998,-2.219 -3.495,-5.052 -3,-8.5 5.518794,-22.38098 13.852211,-43.71402 25,-64 -0.333299,-0.333 -0.6667,-0.667 -1,-1 -2.994497,3.32 -5.494502,6.987 -7.5,11 -6.273694,12.87999 -12.273706,25.88001 -18,39 -3.660196,3.867 -8.160206,5.034 -13.5,3.5 -4.720496,-3.298 -6.220499,-7.79801 -4.5,-13.5 5.158495,-17.64898 12.991811,-33.98302 23.5,-49 -0.0774,-1.25 -0.744001,-2.083 -2,-2.5 -7.271893,-2.475 -14.605208,-4.642 -22,-6.5 z m 42,85 c 0.387025,0.0803 0.719246,0.20206 0.996094,0.36719 0.276848,0.16512 0.499347,0.37305 0.666016,0.62305 0.166668,0.25 0.277498,0.54207 0.333984,0.87695 0.05649,0.33487 0.05761,0.71306 0.0039,1.13281 7.778987,-20.12898 16.279007,-40.12902 25.499997,-60 0.781,-1.444 0.614,-2.777 -0.5,-4 -2.671,3.337 -4.837,7.004 -6.5,11 -6.94999,16.69998 -13.783703,33.36702 -20.499997,50 z m 28.000001,5 c 0.224,-0.2515 0.43362,-0.44066 0.62891,-0.56641 0.19528,-0.12575 0.37634,-0.18945 0.54296,-0.18945 0.16663,0 0.319,0.0637 0.45704,0.18945 0.13803,0.12575 0.26159,0.31491 0.37109,0.56641 6.71799,-18.10898 14.55201,-35.77502 23.5,-53 0.351,-3.599 -0.649,-3.933 -3,-1 -8.32899,17.65698 -15.82901,35.65702 -22.5,54 z"
         style="display:inline;fill:#0e425c;fill-opacity:1" /><g
         id="g14"
         style="display:inline"><path
           fill="#f4e8cf"
           d="m 372.5,260.5 c -15.186,-10.13 -30.853,-10.63 -47,-1.5 -3.5,2.334 -6.5,5.168 -9,8.5 -15.005,-6.332 -21.505,-17.665 -19.5,-34 4.309,-9.481 11.476,-15.481 21.5,-18 10.985,-1.166 21.985,-1.332 33,-0.5 18.967,4.484 27.801,16.318 26.5,35.5 -0.664,4.079 -2.497,7.412 -5.5,10 z"
           id="path13"
           style="display:inline" /><path
           fill="#19435a"
           d="m 372.5,260.5 c -1.457,2.285 -3.457,4.118 -6,5.5 -16.599,6.715 -33.265,7.215 -50,1.5 2.5,-3.332 5.5,-6.166 9,-8.5 16.147,-9.13 31.814,-8.63 47,1.5 z"
           id="path14" /></g><path
         id="path15"
         style="display:none;fill:#0e425c;fill-opacity:1"
         d="m 296.6832,104.48708 c -5.44988,0.0241 -10.84492,0.36229 -16.1836,1.01367 -6.78897,-0.475 -12.789,1.192 -18,5 -9.20096,2.519 -17.20104,7.18504 -24,14 -2.64,3.306 -5.64,6.306 -9,9 -5.63096,7.74296 -11.63104,15.24304 -18,22.5 -4.185,3.109 -8.852,4.109 -14,3 -7.51596,-3.922 -14.51604,-8.58904 -21,-14 -2.822,-1.622 -5.822,-2.789 -9,-3.5 -4.481,-1.148 -9.148,-1.315 -14,-0.5 -0.916,0.278 -1.582,0.778 -2,1.5 -7.90396,2.902 -13.571,8.23604 -17,16 -0.20176,1.10473 -0.37272,2.20743 -0.51367,3.30664 0.141,-1.09985 0.31179,-2.20127 0.51367,-3.30664 -0.722,0.418 -1.222,1.084 -1.5,2 -0.667,6.66699 -0.667,13.33301 0,20 0.934,1.358 1.768,2.692 2.5,4 -0.28228,-1.05032 -0.53322,-2.10448 -0.75586,-3.16016 0.22274,1.05632 0.47341,2.10921 0.75586,3.16016 5.40796,8.54096 13.07504,13.874 23,16 4.456,1.497 9.12202,2.664 14,3.5 6.69098,0.335 13.35702,0.835 20,1.5 6.47896,0.991 13.14604,1.324 20,1 59.33276,-0.348 118.66724,-0.681 178,-1 9.99996,-0.667 20.00004,-1.333 30,-2 20.38392,0.41 34.55104,-8.59008 42.5,-27 2.645,-25.60988 -8.85508,-36.777 -34.5,-33.5 -9.31696,4.65896 -17.983,10.32604 -26,17 -4.58496,1.225 -9.252,1.725 -14,1.5 -4.26896,-2.735 -8.102,-6.069 -11.5,-10 -4.21296,-8.36696 -9.38,-16.03404 -15.5,-23 -11.43696,-11.93496 -25.43704,-18.935 -42,-21 -3.12797,-1.132 -6.462,-1.965 -10,-2.5 -4.30585,-0.36094 -8.57763,-0.5324 -12.8164,-0.51367 z m 105.91601,57.00781 c 0.19228,0.0103 0.37789,0.0318 0.55469,0.0664 -0.35361,-0.0693 -0.7388,-0.0885 -1.1543,-0.0605 0.20775,-0.014 0.40733,-0.0161 0.59961,-0.006 z m -268.61328,0.31445 c -0.14092,1.0992 -0.25193,2.19538 -0.33203,3.28907 0.0801,-1.09369 0.19115,-2.18987 0.33203,-3.28907 z m -0.33203,3.29102 c -0.0801,1.09433 -0.12921,2.18462 -0.14844,3.27344 -0.0192,1.08751 -0.008,2.17383 0.0332,3.25586 -0.0416,-1.08267 -0.0524,-2.1677 -0.0332,-3.25586 0.0192,-1.08817 0.0684,-2.17977 0.14844,-3.27344 z m -0.11524,6.54101 c 0.0417,1.0807 0.1145,2.1572 0.2168,3.23243 0.10199,1.07195 0.23426,2.14246 0.39648,3.20898 -0.16236,-1.06716 -0.29443,-2.13639 -0.39648,-3.20898 -0.10224,-1.07459 -0.17508,-2.15238 -0.2168,-3.23243 z m 0.61914,6.48047 c 0.16147,1.05667 0.35362,2.11077 0.57422,3.16211 -0.22064,-1.05134 -0.41272,-2.10544 -0.57422,-3.16211 z" /><g
         id="g41"
         style="display:inline"
         transform="matrix(3.0302727,0,0,3.0302727,1180.8808,-142.62118)"><path
           style="fill:#0e425c;fill-opacity:1;stroke:none;stroke-width:0.828389;stroke-linecap:round;stroke-dasharray:none"
           d="m -324.42223,97.031587 c 18.40594,2.69844 46.94448,-0.368802 63.41868,-5.685242 2.0787,-0.670824 2.0552,-0.537922 2.4095,0.15169 -0.4166,2.753396 -0.71873,14.797695 -0.51476,16.777155 0.10838,0.87457 -0.75522,1.7998 -1.57937,2.08123 -17.59202,6.00706 -44.20475,8.14654 -61.58363,5.47788 -0.71832,-0.11031 -1.42841,-0.88436 -1.51101,-1.57172 -0.95096,-6.97853 -2.80415,-16.519907 -2.80415,-16.519907 -0.14532,-1.144936 1.14421,-0.860705 2.16474,-0.711086 z"
           id="path40" /><path
           style="fill:#0e425c;fill-opacity:1;stroke:none;stroke-width:0.828389;stroke-linecap:round;stroke-dasharray:none"
           d="m -320.88556,96.908989 c 17.94124,1.348586 39.05286,-0.0079 56.83591,-5.532277 -3.71882,-3.382314 -11.71827,-10.596409 -28.59735,-9.272929 -14.08925,1.104734 -22.93658,7.586706 -28.23856,14.805206 z"
           id="path41" /><path
           style="display:inline;fill:#ffffff;fill-opacity:1;stroke:none;stroke-width:2.20903;stroke-linecap:round;stroke-dasharray:none"
           d="m -292.21813,98.996949 c -0.60657,0.05247 -1.03583,0.741449 -0.96587,1.550201 0.0693,0.80066 -0.50298,1.81516 -1.27165,2.2541 -1.35406,0.77314 -1.34557,0.80179 0.26486,0.94387 1.34425,0.11856 1.70399,0.62456 1.87862,2.64328 0.23973,2.77115 -1.43792,3.68109 -2.30386,1.24916 -0.64768,-1.819 -2.13765,-1.72999 -1.97777,0.1181 0.0982,1.13472 4.32858,4.77178 5.47144,4.70432 0.16275,-0.009 1.31913,-0.94723 2.56963,-2.08424 1.25052,-1.13702 2.21797,-2.70569 2.15047,-3.48597 -0.16092,-1.86017 -1.64148,-1.7041 -1.96859,0.20753 -0.43544,2.54452 -2.24587,1.93632 -2.4856,-0.83483 -0.17463,-2.01872 0.0929,-2.57899 1.39683,-2.92663 1.56223,-0.41655 1.56561,-0.44622 0.0988,-0.97533 -0.83264,-0.30042 -1.57057,-1.20159 -1.63983,-2.00225 -0.07,-0.808744 -0.61118,-1.413765 -1.21776,-1.361291 z"
           id="path39" /></g><g
         id="g56"
         transform="matrix(-1.7658853,0.20229964,0.20229964,1.7658853,-600.74019,85.655359)"
         style="display:none"><path
           style="display:inline;fill:#ffffff;fill-opacity:1;stroke:none;stroke-width:0.3;stroke-linecap:round;stroke-dasharray:none"
           d="m -507.29255,64.548515 c 15.99397,-0.0913 33.18671,5.303298 49.74838,16.056901 6.72618,4.367351 11.3114,7.87665 19.02313,14.560351 5.60123,4.854543 7.75768,6.975853 9.01134,8.864573 1.50848,2.27262 2.07437,3.81228 2.2009,5.98775 0.19361,3.32875 -0.56177,4.94084 -5.75159,12.27522 -1.53351,2.1672 -3.2156,4.54846 -3.73827,5.29167 -0.52267,0.74321 -1.61604,2.42238 -2.42983,3.73207 -0.81379,1.30968 -1.81488,2.76127 -2.22467,3.22513 l -0.74517,0.84335 -1.85209,-1.24591 c -3.85129,-2.59025 -15.90884,-9.30979 -16.692,-9.30228 -0.13269,0.001 -0.70956,0.7287 -1.28157,1.61644 -0.57202,0.88775 -1.90957,2.53868 -2.97243,3.66851 -2.63218,2.79802 -5.03378,4.02225 -8.21862,4.18941 -3.13278,0.16443 -4.6635,-0.21451 -12.17135,-3.01377 -15.90145,-5.92876 -26.60092,-8.15195 -39.22965,-8.15092 -9.97109,7.9e-4 -16.4455,1.21264 -26.13019,4.89065 -3.07599,1.16819 -4.24513,1.26944 -5.52318,0.47956 -1.59461,-0.98553 -1.53195,-2.9486 0.14625,-4.58732 0.6487,-0.63344 1.15467,-0.93201 1.36167,-0.80408 0.20708,0.12798 0.26223,0.0951 0.14883,-0.0884 -0.10502,-0.16992 0.45818,-0.75838 1.34824,-1.4087 0.84069,-0.61425 1.94531,-1.45786 2.45463,-1.87482 0.50932,-0.41696 1.0451,-0.84703 1.19062,-0.9555 0.14553,-0.10847 0.74084,-0.54999 1.32292,-0.98133 0.58208,-0.43135 1.12517,-0.87426 1.20665,-0.98444 0.0815,-0.11018 -0.0385,-1.38365 -0.26614,-2.8298 l -0.41393,-2.6293 -1.61023,-1.40508 c -6.34375,-5.53416 -9.11128,-11.883996 -7.64036,-17.531228 1.33829,-5.138054 7.85351,-12.588017 15.44453,-17.660421 10.12852,-6.767993 21.84343,-10.157304 34.28318,-10.228316 z"
           id="path51" /><path
           id="path56"
           style="display:inline;fill:#0e425c;fill-opacity:1;stroke:none;stroke-width:0.3;stroke-linecap:round;stroke-dasharray:none"
           d="m -507.11478,66.910645 c -9.46891,0.03511 -18.49286,2.070293 -26.62939,6.050793 -6.14599,3.006713 -10.52216,6.148823 -14.86575,10.674801 -5.19114,5.409074 -7.18331,9.63832 -6.46886,13.731978 0.56522,3.238593 3.29083,7.454683 7.38198,11.419453 1.27415,1.2348 1.34735,1.26738 1.94975,0.87437 0.9457,-0.61698 6.10712,-2.63929 9.09247,-3.56257 5.99946,-1.85545 12.76943,-3.18385 19.24895,-3.77703 4.35854,-0.39902 17.48238,-0.16309 21.55683,0.38757 12.09766,1.63501 24.06308,5.15418 36.03501,10.59832 6.24433,2.83957 15.16905,7.76639 20.26129,11.18485 l 1.32292,0.88831 0.48266,-0.60409 c 0.26549,-0.33212 1.18469,-1.58285 2.04277,-2.77968 5.22056,-7.28153 6.18823,-9.18693 6.02237,-11.86026 -0.20844,-3.35945 -1.88994,-5.53786 -9.47384,-12.273666 -7.58654,-6.738142 -10.42602,-8.966709 -17.33021,-13.601237 -12.87497,-8.642475 -24.99032,-13.864125 -37.48247,-16.155086 -4.44635,-0.815428 -8.84245,-1.212787 -13.14648,-1.196826 z m -17.23151,11.021032 c 1.6582,0 3.45565,1.058199 4.16202,2.450497 0.32742,0.645359 0.59263,1.535033 0.58963,1.97714 -0.009,1.255831 -0.8783,2.865633 -1.93632,3.586344 -0.7763,0.528815 -0.96586,0.824892 -0.96686,1.516704 -0.002,0.796783 0.0622,0.859895 0.87126,0.859895 0.96884,0 1.50844,0.394364 1.50844,1.102259 0,0.558365 -0.76546,1.014408 -1.70223,1.014408 -0.6641,0 -0.67902,0.04026 -0.67902,1.852083 0,1.308369 0.0971,1.850499 0.33073,1.846399 0.99559,-0.01749 2.85803,-1.281007 4.82192,-3.271635 2.26668,-2.297484 3.20306,-2.879025 3.60754,-2.24069 0.66167,1.044309 0.0832,2.233702 -2.21537,4.554761 -2.58363,2.6089 -4.16106,3.408646 -6.9417,3.519165 -1.42162,0.05651 -2.45693,-0.04531 -3.15226,-0.310575 -2.23235,-0.851613 -5.44627,-4.128269 -6.11436,-6.233211 -0.18806,-0.592537 0.26597,-1.303797 0.83251,-1.303797 0.2007,0 1.42358,1.071567 2.71715,2.38125 1.29357,1.309681 2.54345,2.38125 2.77761,2.38125 0.31882,0 0.42581,-0.260279 0.42581,-1.036629 0,-0.570179 0.0718,-1.223668 0.15968,-1.452625 0.16349,-0.426052 0.0213,-0.514363 -1.30121,-0.805118 -0.58116,-0.127762 -0.72646,-0.292626 -0.66146,-0.749825 0.0611,-0.429996 0.34729,-0.651097 1.07539,-0.830957 0.91606,-0.226301 0.99218,-0.317736 0.99218,-1.192176 0,-0.80186 -0.12413,-1.002086 -0.80925,-1.305346 -1.02389,-0.453219 -2.10487,-2.069569 -2.28565,-3.417363 -0.30691,-2.288163 1.76565,-4.892208 3.89382,-4.892208 z m 0.0388,2.45308 c -0.90463,0 -1.08032,0.102847 -1.36736,0.795818 -0.34726,0.838349 -0.2011,2.214566 0.29921,2.817399 0.16247,0.195767 0.74802,0.355533 1.30173,0.355533 0.77242,0 1.1347,-0.16221 1.55546,-0.697115 1.15934,-1.473858 0.17613,-3.271635 -1.78904,-3.271635 z m 15.23214,23.958743 c -4.25371,-0.001 -8.46224,0.15766 -10.91044,0.47698 -6.76229,0.88198 -11.56793,1.96015 -17.33021,3.88761 -3.05754,1.02274 -7.72108,2.85651 -8.03258,3.15847 -0.24057,0.23318 0.0113,3.14731 0.31367,3.62975 0.11922,0.19019 1.05339,-0.008 2.82412,-0.59945 1.45521,-0.48616 3.30068,-1.05729 4.10104,-1.26865 0.80036,-0.21137 2.34818,-0.62501 3.43958,-0.91933 2.62255,-0.70723 6.74688,-1.48209 10.98021,-2.06292 2.69868,-0.37027 5.26337,-0.47296 11.90625,-0.47646 7.35415,-0.004 9.03663,0.0745 12.80646,0.59428 16.07143,2.2161 29.22308,6.57468 45.13729,14.95981 2.47385,1.30347 5.12534,2.76775 5.89215,3.25407 0.76681,0.48631 1.45035,0.88418 1.51929,0.88418 0.0689,0 0.98765,0.53652 2.04121,1.19218 1.05358,0.65566 2.0364,1.15421 2.18437,1.10794 0.14797,-0.0463 0.79102,-1.10398 1.42885,-2.35076 0.63784,-1.24678 1.07962,-2.39617 0.98185,-2.55437 -0.0978,-0.1582 -1.75065,-1.26753 -3.67316,-2.46496 -17.87639,-11.13433 -35.74174,-17.68784 -54.42768,-19.96571 -2.62955,-0.32055 -6.92854,-0.48162 -11.18227,-0.48266 z m -2.33525,8.17366 c -4.45356,-0.0274 -8.89906,0.0876 -11.08873,0.35864 -8.0112,0.99161 -13.68568,2.30782 -20.53622,4.76301 -2.66629,0.9556 -3.18612,1.25708 -5.55625,3.22461 -3.68132,3.05603 -3.55134,2.94981 -4.86482,3.96462 -1.22262,0.9446 -1.57527,1.31475 -1.58233,1.66036 -0.01,0.48342 1.53148,0.0954 5.01572,-1.26297 12.66086,-4.9361 27.972,-5.90444 43.66348,-2.76159 3.51018,0.70306 11.29664,2.70546 13.28859,3.41737 0.29344,0.10487 0.5873,0.18671 0.87799,0.27026 l -0.01,0.007 10.74663,3.58221 c 0.0686,0.0275 0.12844,0.0482 0.19224,0.0641 l 2.90266,0.96738 c 0.12112,0.0679 0.24133,0.12838 0.27234,0.0904 l 0.31936,0.10646 c 6.74889,2.80646 10.89147,-1.40338 14.09888,-7.14995 0,0 -9.68882,-4.87824 -16.23725,-6.41512 l -0.0248,0.0181 c -0.1842,-0.0573 -0.32417,-0.0969 -0.49764,-0.15141 -6.28599,-1.97512 -12.04549,-3.21066 -19.84375,-4.25762 -2.22105,-0.29819 -6.68273,-0.46816 -11.13627,-0.49558 z" /></g><path
         id="path16"
         style="display:inline;fill:#c7ab4c;fill-opacity:1"
         d="m 319.60702,346.63747 c -1.02373,0.0387 -2.05992,0.16078 -3.10742,0.36328 3.295,2.12 5.628,4.95402 7,8.5 1.83139,1.79686 2.63713,3.96401 2.50196,6.47266 l 1.61132,3.75586 c 1.70486,3.79352 3.99413,7.22113 6.88672,10.27148 6.275,4.099 11.44202,2.933 15.5,-3.5 2,-3.66698 2,-7.333 0,-11 -2.102,-1.595 -3.602,-3.595 -4.5,-6 -3.09198,-1.877 -6.425,-3.211 -10,-4 -0.798,-0.457 -1.131,-1.124 -1,-2 -2,-0.333 -4,-0.667 -6,-1 -2.85748,-1.3575 -5.82133,-1.97953 -8.89258,-1.86328 z" /><path
         id="path17"
         style="display:inline;fill:#0e425c;fill-opacity:1"
         d="m 70.999599,323.50075 c -1.029896,0.336 -1.5299,1.003 -1.5,2 -1.766694,6.219 -3.433306,12.55203 -5,19 v 1 c -4.786785,15.37897 -8.786809,31.04606 -12,47 v 2 c -0.7216,0.418 -1.221603,1.084 -1.5,2 -0.5013,4.01 -1.001303,8.01003 -1.5,12 -2.227592,6.381 -3.560904,13.04804 -4,20 -1.577698,8.45998 -2.577702,17.12702 -3,26 -0.1666,16.66997 10e-5,33.33706 0.5,50 0.566197,2.223 1.399503,4.22303 2.5,6 3.634384,15.62996 11.967852,27.96304 25,37 17.853428,7.653 36.520081,10.153 56.000001,7.5 16.20492,-3.23396 31.53904,-8.734 46,-16.5 4.308,-4.55096 8.641,-9.218 13,-14 0.917,-0.627 1.917,-0.961 3,-1 0.149,1.052 -0.017,2.052 -0.5,3 -3.002,3.834 -14.88203,17.72837 -18.21303,21.22834 21.0545,1.99271 48.00977,5.90338 123.52172,5.54725 2.97,-0.763 1.3029,-27.26562 3.3329,-29.50262 3.321,-5.63396 4.01341,-13.90697 5.35841,-20.27297 3.064,-24.06588 1.397,-47.73308 -5,-71 -0.667,-5.99996 -0.667,-12 0,-18 3.368,-10.70196 10.53404,-17.202 21.5,-19.5 7.44096,-0.247 14.77404,0.586 22,2.5 3.158,0.079 5.825,-0.921 8,-3 4.238,-2.745 8.90504,-4.078 14,-4 6.667,1.667 13.33304,3.333 20,5 4.944,-0.037 9.61104,-1.203 14,-3.5 8.13296,-0.934 15.46604,1.06604 22,6 3.686,0.559 7.35304,1.226 11,2 12.67796,4.096 15.345,11.59604 8,22.5 v 4 14 c -0.968,2.107 -1.302,4.44103 -1,7 h 2 c 14.18496,10.69596 21.85204,25.02908 23,43 1.017,19.98994 1.183,39.99006 0.5,60 -1.12797,1.845 -1.628,3.84503 -1.5,6 2.198,-0.375 4.19803,-1.042 6,-2 9.40896,-2.47096 18.74304,-5.137 28,-8 8.105,-3.91996 15.27204,-9.254 21.5,-16 3.352,-5.55396 5.185,-11.554 5.5,-18 1.158,-9.49097 1.325,-19.15803 0.5,-29 -0.82397,-4.03997 -2.324,-7.707 -4.5,-11 -5.85896,-15.36392 -15.35904,-28.03104 -28.5,-38 -20.98988,-36.00784 -51.15616,-60.50804 -90.5,-73.5 -7.53996,-1.524 -14.874,-3.358 -22,-5.5 h -31 c 0.898,2.405 2.398,4.405 4.5,6 2,3.667 2,7.33304 0,11 -4.05796,6.433 -9.225,7.599 -15.5,3.5 -2.95196,-3.11296 -5.285,-6.613 -7,-10.5 -2.654,1.336 -4.987,3.003 -7,5 -4.51496,1.779 -9.182,2.279 -14,1.5 -2.792,-2.99 -6.125,-4.823 -10,-5.5 -3.018,0.165 -6.018,-0.002 -9,-0.5 -0.556,-0.383 -0.889,-0.883 -1,-1.5 -3.76996,-0.55 -6.437,-2.55 -8,-6 -0.20939,-0.81478 -0.52006,-0.90223 -1,-1 -15.58892,-0.984 -31.25604,-1.317 -47,-1 h -10 c -19.77492,4.474 -37.44208,13.14104 -53,26 -0.952,1.545 -1.285,3.212 -1,5 -0.308,3.86 -0.975,7.52604 -2,11 v 1 c -0.398,5.839 -1.065,11.50604 -2,17 0.431,4.532 -0.069,8.86504 -1.5,13 -0.499,-5.65696 -0.666,-11.324 -0.5,-17 0.333,-5.33296 0.667,-10.667 1,-16 l 2,-14 1.5,-8 c 0.925,-4.40296 2.091,-8.736 3.5,-13 -0.124,-0.607 -0.457,-0.94 -1,-1 -16.66692,4.457 -31.50004,1.12296 -44.5,-10 -2.006,-3.036 -2.84,-6.369 -2.5,-10 -13.86196,-3.456 -27.195353,-8.123 -40.000001,-14 -3.374888,-0.267 -6.541612,-1.267 -9.5,-3 z m 91.287111,62.24414 c -0.002,0.007 -0.004,0.0144 -0.006,0.0215 0.002,-0.007 0.004,-0.0144 0.006,-0.0215 z m -1,6.97071 c -1.6e-4,0.0215 1.1e-4,0.043 0,0.0645 1.2e-4,-0.0215 -1.6e-4,-0.043 0,-0.0645 z" /><path
         style="clip-rule:evenodd;display:inline;fill:#ffffff;fill-opacity:1;fill-rule:evenodd;stroke:none;stroke-width:1.4;stroke-linecap:round;image-rendering:optimizeQuality;shape-rendering:geometricPrecision;text-rendering:geometricPrecision"
         d="m -331.9666,206.20953 c 9.62222,0.66821 27.12931,1.33641 38.8898,1.87098 l -2e-5,1.06914 c -12.49552,-0.60139 -35.34831,-1.80416 -39.69167,-2.20509 z"
         id="path25"
         transform="matrix(3.7795276,0,0,3.7795276,1401.9093,-233.28926)" /><path
         id="path28"
         style="clip-rule:evenodd;display:inline;fill:#0e425c;fill-opacity:1;fill-rule:evenodd;image-rendering:optimizeQuality;shape-rendering:geometricPrecision;text-rendering:geometricPrecision"
         d="m 70.999086,323.49981 c -1.029895,0.336 -1.5299,1.003 -1.5,2 -1.766693,6.21899 -3.433308,12.55204 -5,19 v 1 c -4.786781,15.37896 -8.786813,31.04608 -12.000001,47 v 2 c -0.721599,0.418 -1.221603,1.084 -1.5,2 -0.501299,4.01 -1.001303,8.01004 -1.5,12 -2.227589,6.381 -3.560904,13.04805 -4,20 -1.577696,8.45997 -2.577702,17.12703 -3,26 -0.1666,16.66996 1.01e-4,33.33708 0.5,50 0.566197,2.223 1.399504,4.22303 2.5,6 3.634381,15.62995 11.967866,27.96305 25.000001,37 17.85341,7.653 36.520104,10.153 56.000004,7.5 16.2049,-3.23395 31.53905,-8.734 46,-16.5 4.30799,-4.55095 8.641,-9.218 13,-14 0.91412,-0.62503 1.91115,-0.95732 2.99023,-0.99804 l -27.61914,-85.00391 0.22852,-9.3457 c -0.0382,0.11488 -0.06,0.23308 -0.0996,0.34765 -0.499,-5.65695 -0.666,-11.324 -0.5,-17 0.333,-5.33295 0.667,-10.667 1,-16 l 2,-14 1.5,-8 c 0.925,-4.40295 2.091,-8.736 3.5,-13 -0.124,-0.607 -0.457,-0.94 -1,-1 -16.66691,4.457 -31.50006,1.12295 -44.5,-10 -2.006,-3.036 -2.84,-6.369 -2.5,-10 -13.86195,-3.456 -27.195369,-8.12301 -40.000004,-14 -3.374885,-0.267 -6.541615,-1.267 -9.5,-3 z M 188.49909,523.53106 c 0.005,0.0373 -0.006,0.0722 -0.002,0.10938 l 0.0274,-0.0312 z"
         transform="translate(4.0944883e-5)" /><path
         fill="#f0e7d0"
         d="m 328.5,348.5 c -3.81,-1.81 -7.81,-2.31 -12,-1.5 3.295,2.12 5.628,4.954 7,8.5 -3.092,4.528 -7.259,6.194 -12.5,5 -2.169,-13.158 2.331,-23.325 13.5,-30.5 1.941,-0.743 3.774,-0.576 5.5,0.5 0.732,6.11 0.232,12.11 -1.5,18 z"
         id="path18" /><path
         style="clip-rule:evenodd;fill:#c6aa4b;fill-opacity:1;fill-rule:evenodd;stroke:none;stroke-width:5.29134;stroke-linecap:round;image-rendering:optimizeQuality;shape-rendering:geometricPrecision;text-rendering:geometricPrecision"
         d="m 437.54057,417.66279 v 12.88014 l -5.42986,13.25896 -18.18373,134.10497 -77.78588,3.53572 -15.6583,-12.12248 10.1021,-140.41876 46.9746,-18.18372 z"
         id="path24"
         transform="translate(4.0944883e-5)" /><path
         id="path19"
         d="m 371.9996,422.50075 c -1.876,0.025 -3.376,0.691 -4.5,2 0.219,-0.0327 0.42628,-0.037 0.61914,-0.0117 -0.19286,-0.0253 -0.40014,-0.021 -0.61914,0.0117 -2.208,1.394 -3.708,3.39401 -4.5,6 -0.149,5.825 -1.149,11.49201 -3,17 -3.69299,2.535 -7.859,3.702 -12.5,3.5 -1.201,0.903 -2.035,2.069 -2.5,3.5 -0.546,6.684 -0.38,13.35101 0.5,20 10.29799,0.965 20.63201,1.632 31,2 13.67099,-0.731 27.33802,-1.398 41,-2 1.851,-11.49999 2.517,-23.00001 2,-34.5 -5.92899,-1.711 -11.929,-1.877 -18,-0.5 -6.26299,-0.627 -12.43,-1.627 -18.5,-3 -5.16099,0.921 -10.328,1.421 -15.5,1.5 -1.11,-2.73699 -1.277,-5.571 -0.5,-8.5 0.383,-0.556 0.883,-0.889 1.5,-1 0.765,-0.423 1.598,-0.757 2.5,-1 4.735,1.79 9.56901,3.124 14.5,4 1.667,-0.167 3.333,-0.333 5,-0.5 3.586,-1.767 7.25201,-3.267 11,-4.5 12.05199,5.256 24.05202,5.256 36,0 v -4 c -5.45599,3.386 -11.456,4.72 -18,4 -5.25999,0.693 -9.927,-0.474 -14,-3.5 -1.333,-0.167 -2.667,-0.333 -4,-0.5 -4.66699,1.667 -9.333,3.333 -14,5 -5.22399,-1.367 -10.391,-3.034 -15.5,-5 z m -2.88086,2.48828 c 0.14049,0.14139 0.26661,0.31222 0.38086,0.51172 -0.11425,-0.1995 -0.24037,-0.37033 -0.38086,-0.51172 z m -26.61914,79.51172 c -1,0.333 -1.667,1 -2,2 12.95799,1.981 26.29102,2.648 40,2 v -4 z m -13,32 v 5 c 16.92299,0.985 33.92302,1.318 51,1 v -3 c -13.33698,0.167 -26.67101,0 -40,-0.5 -3.98299,-0.026 -7.65,-0.86 -11,-2.5 z m 3.83922,29.64284 -1.96439,5.60723 c 14.64499,0.894 32.43719,-0.0231 47.12517,-0.25007 v -3 c -14.70398,-0.005 -30.53179,-1.02916 -45.16078,-2.35716 z"
         style="display:none;fill:#c6aa4b;fill-opacity:1" /><path
         fill="#f3e8cd"
         d="m 437.5,426.5 c 0,4.667 0,9.333 0,14 -0.968,2.107 -1.302,4.441 -1,7 4.152,16.758 -2.181,25.758 -19,27 1.851,-11.5 2.517,-23 2,-34.5 -5.929,-1.711 -11.929,-1.877 -18,-0.5 -6.263,-0.627 -12.43,-1.627 -18.5,-3 -5.161,0.921 -10.328,1.421 -15.5,1.5 -1.11,-2.737 -1.277,-5.571 -0.5,-8.5 0.383,-0.556 0.883,-0.889 1.5,-1 0.765,-0.423 1.598,-0.757 2.5,-1 4.735,1.79 9.569,3.124 14.5,4 1.667,-0.167 3.333,-0.333 5,-0.5 3.586,-1.767 7.252,-3.267 11,-4.5 12.052,5.256 24.052,5.256 36,0 z"
         id="path20"
         style="display:inline" /><path
         id="path22"
         style="display:inline;fill:#f3e7cd;fill-opacity:1"
         d="m 362.4996,390.50075 c -5.09499,-0.078 -9.762,1.255 -14,4 -2.175,2.079 -4.842,3.079 -8,3 -7.22599,-1.914 -14.55901,-2.747 -22,-2.5 -10.96599,2.298 -18.132,8.79801 -21.5,19.5 -0.667,6 -0.667,12.00001 0,18 6.397,23.26698 8.064,46.93403 5,71 -18.43628,46.72207 -9.31131,132.33945 21.5,74 1.44,-4.07599 4.44001,-6.242 9,-6.5 0.559,-0.72499 0.892,-1.558 1,-2.5 -3.44599,-8.64099 -4.78,-17.64101 -4,-27 v -5 c -1.115,-5.24999 -1.281,-10.583 -0.5,-16 4.075,-4.56499 7.90901,-9.232 11.5,-14 0.333,-1 1,-1.667 2,-2 2.208,-9.81599 3.208,-19.81601 3,-30 -0.88,-6.64899 -1.046,-13.316 -0.5,-20 0.465,-1.431 1.299,-2.597 2.5,-3.5 4.641,0.202 8.80701,-0.965 12.5,-3.5 1.851,-5.50799 2.851,-11.175 3,-17 0.792,-2.60599 2.292,-4.606 4.5,-6 1.124,-1.309 2.624,-1.975 4.5,-2 5.109,1.966 10.27601,3.633 15.5,5 4.667,-1.667 9.33301,-3.333 14,-5 1.333,0.167 2.667,0.333 4,0.5 4.073,3.026 8.74001,4.193 14,3.5 6.544,0.72 12.54401,-0.614 18,-4 7.345,-10.90399 4.67799,-18.404 -8,-22.5 -3.64699,-0.774 -7.314,-1.441 -11,-2 -6.53399,-4.93399 -13.86701,-6.934 -22,-6 -4.38899,2.297 -9.056,3.463 -14,3.5 -6.66699,-1.667 -13.333,-3.333 -20,-5 z m 98,166 c -5.33799,8 -11.672,15.00001 -19,21 z" /><path
         fill="#f4b483"
         d="m 436.5,447.5 h 2 c 14.185,10.696 21.852,25.029 23,43 1.017,19.99 1.183,39.99 0.5,60 -1.128,1.845 -1.628,3.845 -1.5,6 -5.338,8 -11.672,15 -19,21 -6.905,4.282 -13.905,8.282 -21,12 -9.859,4.011 -20.192,6.178 -31,6.5 -12.329,0.5 -24.662,0.667 -37,0.5 -4.915,-1.351 -9.915,-2.351 -15,-3 -7.061,-0.738 -11.728,-4.405 -14,-11 v -5 c 1.44,-4.076 4.44,-6.242 9,-6.5 0.38133,-0.49456 35.00753,0.23921 38.02705,-0.40288 1.40689,-0.29917 2.21889,-1.49239 1.84281,-2.01278 -6.90953,0.30866 -38.99632,-0.40337 -39.05847,-0.56307 -3.3059,-8.49455 -4.577,-17.33497 -3.81139,-26.52127 16.923,0.985 33.923,1.318 51,1 v -3 c -13.337,0.167 -26.671,0 -40,-0.5 -3.983,-0.026 -7.65,-0.86 -11,-2.5 -1.115,-5.25 -1.281,-10.583 -0.5,-16 4.075,-4.565 7.909,-9.232 11.5,-14 12.958,1.981 26.291,2.648 40,2 v -4 h -38 c 2.208,-9.816 3.208,-19.816 3,-30 10.298,0.965 20.632,1.632 31,2 13.671,-0.731 27.338,-1.398 41,-2 16.819,-1.242 23.152,-10.242 19,-27 z"
         id="path23"
         style="display:inline" /></g></g></svg>
