<?xml version="1.0" encoding="utf-8"?>
<!-- Generator: Adobe Illustrator 26.2.1, SVG Export Plug-In . SVG Version: 6.00 Build 0)  -->
<svg version="1.1" id="Layer_1" xmlns="http://www.w3.org/2000/svg" xmlns:xlink="http://www.w3.org/1999/xlink" x="0px" y="0px"
	 viewBox="0 0 566.9 566.9" style="enable-background:new 0 0 566.9 566.9;" xml:space="preserve">
<path d="M240.9,444.7c-5-1.3-9.8-2.8-14.6-4.6c-0.7-6.4-1.4-12.8-1.6-16.1c0.4-0.2,0.8-0.4,1-0.7c0.8-1,1-2.6,1-2.6s5.1,1.9,7.6,3
	c2.4,1.1,3.8,0.9,4.2,0.6c0.4-0.3,0.5-1.6,0.5-1.6s0.5,0.2,1.2,0.3c0.2,2.9,0.7,10.1,0.8,14.6C241,439.1,241,441.7,240.9,444.7z
	 M390.3,377.7c26.5-46.6-1.1-66.1-1.1-66.1c12.5-1.3,25.7,9.5,25.7,9.5l-1.8-5.9c14.5,2.7,22.6,12.8,22.6,12.8
	c-5.2-31.6-25-43.1-39.1-45.2c5.6-5.9,19.6-4.3,19.6-4.3l-4.6-5.8c6.3-3.3,22.7-1.2,22.7-1.2s-14.1-11.8-36.1-11
	c-14.5,0.5-25.4,10.1-32.7,20.4c-0.9-9.3-3.7-19.1-10-26.8L314.9,331l0.7,7.1c0,0,11.7-14.8,20.2-19.9l-1.4,9.8
	c6.5-7.2,13.1-12.1,18.4-15.3c-9.8,20-27.9,65.3-31.9,133.2c-12,2.8-24.6,4.3-37.4,4.3c-13.6,0-26.8-1.7-39.5-4.7
	c0.1-5.6,0.4-11,0.5-13.1c0.3-4.2,0.3-9.7,0.3-9.7s0.2-0.2,0.5-0.5c0.4,0.1,0.8,0.2,1.4,0.2c2.1,0.1,2.1,0.1,2.1,0.1s2,2.9,3,3.5
	s1.4,0,1.4,0s0.5,0.2,1.3,0.5l9.4-55c-0.9-0.9-1.8-1.8-2.6-2.5c-2.6-2.4-6.6-6.6-10-9.9c-3.4-3.3-10.8-7.6-17.1-10.6
	c-6.3-3-13.8-3.6-20.4-3.3c-6.6,0.3-12.9,4.5-16.4,6.6c-3.5,2-6.2,5.1-7,7.8c-0.8,2.6-0.5,4.7-2.2,5.5c-1.7,0.8-7.5,0.8-7.8-7.3
	c-0.3-8.1,1.9-12.7,3.4-16.1c1.5-3.4,8.2-16.7,10.9-23.9c2.7-7.2,6.7-14.1,7.4-22.2c0.7-8.1-2.2-12.2-3.4-14.9
	c-1.2-2.7-3.6-10.5-12.8-12.1c-9.2-1.6-15.5,4.6-16.6,7.5c0,0-8.4,3.9-11.7,6.2c-3.3,2.2-6.1,4.9-6.1,7.5c0,2.5-0.3,10.7,0.2,14
	c0.5,3.3,1.6,3.8,1.6,3.8s1.3,2,2.3,1.8c1-0.2,2.4-3.8,2.8-6.9c0.4-3,1.4-4.2,3-7.3c0.9-1.6,5.1-4,7.7-6.9c0,0,2.5,0.7,7.3,0.6
	c4.7-0.1,10.5-1.3,12.1-0.8c1.6,0.5,3.3,2.5,2.5,6.6c-0.8,4-5.3,13.4-9.8,22.1c-4.4,8.7-13,25.2-15.1,34.3
	c-2.1,9.1,0.4,19.5,4.9,25.7c4.5,6.3,9.8,11,11.4,12c1.6,1,2.8,1.1,2.8,1.1s3.2,3,5,4.1c1.8,1.1,2.5,2.1,3.3,2.5
	c0.8,0.4,1.6,0.6,1.6,0.6s1.3,2.3,2.2,2.5c0.9,0.2,1-1.1,1-1.1s3.7,2.4,5.3,5.4c1.6,3,3.8,5.1,4.1,5.2c0.3,0.1,4.3,6.1,6.3,7.7
	c1.9,1.6,3.9,1.8,3.9,1.8s0.9,3.4,1.9,4.3c0.3,0.3,0.6,0.5,0.9,0.7c0.6,3.5,1.3,8.3,1.7,11.6c0.1,1,0.2,2.2,0.3,3.4
	c-62.2-24.2-106.3-84.6-106.3-155.4c0-71.7,45.2-132.7,108.7-156.3l0,0c0.6-0.2,1.3-0.4,2-0.7c0.5-0.2,1.1-0.4,1.6-0.6l0,0
	c1.2-0.4,2.3-0.8,3.5-1.2l-31.3,97.6l56.5-11.9L232,290.7l53.8-11.3l-23.9,139.1l102.6-194.2L304.2,237l36.5-110.1
	c0.9,0.3,1.9,0.7,2.8,1.1l0,0c0.3,0.1,0.5,0.2,0.8,0.3c0.7,0.3,1.4,0.5,2,0.8l0,0c60.9,24.8,103.9,84.6,103.9,154.4
	c0,74.6-49,137.8-116.6,159c3.5-69.3,18.2-111.4,26.1-129.3c3.1,5.5,6.9,13.6,9.1,24l3.7-9.2c4.9,8.6,7.6,27.3,7.6,27.3l4.7-6.6
	C387,354,390.2,363.3,390.3,377.7z M277.1,402.6l-14.4,27.2c1.1,0.6,1.5,1.2,2.5,1.3c1.2,0.1,2.2,0.2,2.2,0.2s1,0.4,3.2,2.1
	c2.2,1.7,4.5,1.9,5.5,1.7s0.7-1.3,0.7-1.3s1.8,0.4,3.3,0.3c1.5-0.1,2.2-0.5,2.2-0.5s-0.2,1,0.6,1.3c0.8,0.3,2.3-1.2,2.3-1.2
	s2.2,0.5,3.1,0.2c0.9-0.3,0.1-2.2,0.1-2.2s1.9,0.5,3.2,0.2c1.3-0.3-0.2-1.5-1.4-2.1c0,0,3.2,0.8,4.1,0.1c0.9-0.7-1.6-1.6-2.9-1.8
	c-1.3-0.2-2.6-0.8-2.6-0.8s0.3-1.9-0.8-3c-1.1-1.1-3.7-3.2-4.1-4.2c0,0,1.7,0.1,1.4-1c-0.3-1.1-1.7-2.2-3.2-3.5
	c-1.5-1.3-2.9-3.5-2.9-3.5s-1.2-6.4-2.1-9.1C277.2,402.7,277.1,402.6,277.1,402.6z M376.8,470.3c-4.1,2.1-5.6,6.6-3.6,10.7
	c2.1,4.1,6.6,5.6,10.7,3.6s5.6-6.6,3.6-10.7C385.5,469.7,381,468.2,376.8,470.3z M324.1,514.9l-5.3-35.7l6.3-0.9l-1.8-11.9
	l-24.5,3.6l1.8,11.9l6.4-0.9l5.3,35.7l-6.4,0.9l1.8,11.9l24.5-3.6l-1.8-11.9L324.1,514.9z M331.8,100.2l-59.1-5.9l0.3-3.2l34.4-53.7
	l3.5,0.3L332.1,97L331.8,100.2z M315.6,86.5l-9-25.5l-14.9,23.1L315.6,86.5z M248.3,98.7L245,87.2l-21.5,6.2l-13.2-46.2l-11.5,3.3
	l16.5,57.6L248.3,98.7z M427,155l63.4-6.7l1.9,2.9l-33,53.5l-2.7,1.7l-32.4-49.7L427,155z M444.2,165.2l13.1,20.1l14.3-23
	L444.2,165.2z M561.3,283.5c0,153.2-124.6,277.8-277.8,277.8S5.7,436.6,5.7,283.5C5.7,130.3,130.3,5.7,283.5,5.7
	S561.3,130.3,561.3,283.5z M549.3,283.5c0-146.6-119.2-265.8-265.8-265.8c-146.6,0-265.8,119.3-265.8,265.8
	c0,146.6,119.3,265.9,265.8,265.9C430.1,549.3,549.3,430,549.3,283.5z M405.9,138.9L356,108.4l31.3-51.2l3.5,2.1l9.5,32.5l33.2-6.4
	l3.6,2.2L405.9,138.9z M401.9,122.4l12.9-21.1l-22.9,4.4l-6.5-22.4l-12.9,21.1L401.9,122.4z M194.7,447.9l3.1,1.7l-3.2,62.8
	l-1.5,2.8l-52.3-28l1.5-2.8L194.7,447.9z M184.9,469.3L162.3,485l21.1,11.3L184.9,469.3z M408.2,463.5c7.7,15.3,1.4,34-13.9,41.7
	c-15.3,7.7-34,1.4-41.7-13.9c-7.7-15.3-1.4-34,13.9-41.7C381.8,441.9,400.5,448.2,408.2,463.5z M397.2,469
	c-4.6-9.3-15.9-13-25.2-8.4c-9.3,4.6-13,15.9-8.4,25.2c4.6,9.3,15.9,13,25.2,8.4C398.1,489.5,401.8,478.3,397.2,469z M227.1,475.5
	l16.5,2.8l-8.2,47.4l11.8,2l8.2-47.4l16.4,2.8l2-11.8l-44.6-7.7L227.1,475.5z M156.4,421l-24.4,23.1l1.6-47.1l-2.6-2.7l-43.6,41.3
	l8.2,8.7l25.4-24.1l-2.2,48.6l2.2,2.3l43.6-41.3L156.4,421z M428.4,402l24.5,22.9l-47.2,1.2l-2.6,2.7l43.8,41l8.2-8.8l-25.6-23.9
	l48.6-0.7l2.2-2.3l-43.8-41L428.4,402z M144.1,150.5l-11.7-62.7l2.8-2.1l56,28.7l1.9,2.5L146,153L144.1,150.5z M147.9,105.6l5,27
	l19-14.6L147.9,105.6z M99.7,176.6l0.3-0.3l0.2-0.2c5-4.3,9.5-6,12.3-4.3c1.3,0.8,4.4,4.5,1.9,8.8c-1.3,2.3-5,8.4-14,10.4l2.7,11.7
	c5.9-1.3,10.9-3.9,15.1-7.7c3.3-3,5.3-6.1,6.6-8.3c2.7-4.7,3.3-10,1.7-15c-1.4-4.3-4.2-8-7.8-10.2c-3.7-2.2-8-2.8-12.5-1.9
	c-4.4,1-9,3.5-13.6,7.4c-0.4,0.4-0.8,0.7-1.3,1.2c-4,4-6.5,5-9.2,3.5c-1.7-0.9-2.2-1.9-2.4-2.6c-0.6-2.2,0.4-5,0.8-5.7
	c2.7-4.5,5.3-5.8,9.4-7.9l2.3-1.2l-5.6-10.6l-2.1,1c-4.7,2.3-9.9,4.9-14.3,12.5c-1.6,2.7-3.7,8.8-2,15c1.2,4.3,4.1,7.8,8.3,10
	c5.1,2.7,10.4,2.7,15.6,0.2C95.5,180.7,98.2,178,99.7,176.6z"/>
</svg>
